<svg width="32" height="32" viewBox="0 0 32 32" fill="none" xmlns="http://www.w3.org/2000/svg">
<g clip-path="url(#clip0_1760_1367)">
<circle cx="16" cy="16" r="16" fill="#050505"/>
<path d="M19.515 6.635L18.69 7.055C16.965 8.69 15.675 10.49 14.295 13.16C14.85 13.22 15.18 13.37 15.18 13.565C15.18 13.625 15.135 13.67 15.075 13.67C15.03 13.67 15.015 13.655 14.955 13.595C14.865 13.46 14.61 13.385 14.19 13.355C12.81 15.815 11.76 17.285 10.32 18.71C8.73 20.285 6.555 21.455 5.19 21.455C4.545 21.455 4.11 20.99 4.11 20.285C4.11 19.355 4.635 18.38 5.76 17.225C7.62 15.305 10.95 13.58 13.515 13.19C15.195 10.46 16.02 9.425 18.24 7.265C16.38 8 15.795 8.285 15.06 8.765C13.71 9.665 13.08 10.58 13.08 11.63C13.08 12.14 13.23 12.41 13.53 12.425C13.71 12.44 13.74 12.455 13.74 12.515C13.74 12.575 13.665 12.62 13.56 12.62C13.14 12.62 12.825 12.095 12.825 11.405C12.825 10.34 13.455 9.35 14.565 8.69C15.135 8.345 15.87 8 16.755 7.67C18.18 7.13 18.225 7.115 18.51 6.98L18.96 6.605C19.32 6.335 19.545 6.2 19.695 6.2C19.785 6.2 19.83 6.23 19.83 6.29C19.83 6.41 19.695 6.545 19.515 6.635ZM13.38 13.415C12.45 13.595 11.25 14.045 10.035 14.69C8.505 15.485 6.765 16.805 5.655 17.975C4.845 18.845 4.38 19.775 4.38 20.54C4.38 20.96 4.695 21.26 5.13 21.26C6.075 21.26 7.32 20.675 8.4 19.73C10.035 18.305 11.145 16.895 13.38 13.415Z" fill="#A89CF2"/>
<path d="M15.48 25.075C15.11 25.075 14.845 24.995 14.685 24.835C14.525 24.665 14.445 24.35 14.445 23.89C14.445 23.58 14.475 23.205 14.535 22.765C14.595 22.325 14.7 21.66 14.85 20.77C14.87 20.65 14.95 20.165 15.09 19.315C15.23 18.455 15.355 17.555 15.465 16.615C15.565 15.815 15.615 15.215 15.615 14.815C15.615 14.365 15.45 14.14 15.12 14.14C14.87 14.14 14.555 14.275 14.175 14.545C13.805 14.805 13.405 15.225 12.975 15.805C12.835 15.995 12.68 16.09 12.51 16.09C12.37 16.09 12.245 16.025 12.135 15.895C12.035 15.755 11.985 15.6 11.985 15.43C11.985 15.26 12.015 15.1 12.075 14.95C12.135 14.79 12.245 14.6 12.405 14.38C12.895 13.71 13.44 13.195 14.04 12.835C14.64 12.465 15.27 12.28 15.93 12.28C16.48 12.28 16.89 12.45 17.16 12.79C17.44 13.13 17.58 13.625 17.58 14.275C17.58 14.855 17.5 15.695 17.34 16.795C17.84 15.315 18.475 14.195 19.245 13.435C20.015 12.665 20.92 12.28 21.96 12.28C22.78 12.28 23.395 12.515 23.805 12.985C24.225 13.445 24.435 14.065 24.435 14.845C24.435 15.285 24.37 15.82 24.24 16.45L23.325 20.74C23.225 21.24 23.175 21.67 23.175 22.03C23.175 22.45 23.27 22.765 23.46 22.975C23.66 23.185 23.935 23.29 24.285 23.29C24.615 23.29 24.935 23.18 25.245 22.96C25.565 22.74 25.94 22.375 26.37 21.865C26.49 21.725 26.625 21.655 26.775 21.655C26.905 21.655 27.005 21.715 27.075 21.835C27.155 21.955 27.195 22.12 27.195 22.33C27.195 22.72 27.1 23.03 26.91 23.26C26.39 23.89 25.875 24.35 25.365 24.64C24.855 24.93 24.32 25.075 23.76 25.075C22.91 25.075 22.245 24.825 21.765 24.325C21.285 23.815 21.045 23.135 21.045 22.285C21.045 21.955 21.07 21.595 21.12 21.205C21.18 20.815 21.275 20.32 21.405 19.72L22.005 16.975C22.025 16.885 22.06 16.725 22.11 16.495C22.16 16.265 22.2 16.05 22.23 15.85C22.26 15.64 22.275 15.435 22.275 15.235C22.275 14.915 22.185 14.66 22.005 14.47C21.825 14.28 21.57 14.185 21.24 14.185C20.64 14.185 20.04 14.505 19.44 15.145C18.84 15.785 18.285 16.82 17.775 18.25C17.265 19.67 16.865 21.49 16.575 23.71C16.505 24.22 16.4 24.575 16.26 24.775C16.13 24.975 15.87 25.075 15.48 25.075Z" fill="white"/>
<path d="M10 5C10 6.65685 11.3431 8 13 8C11.3431 8 10 9.34315 10 11C10 9.34315 8.65685 8 7 8C8.65685 8 10 6.65685 10 5Z" fill="white"/>
</g>
<defs>
<clipPath id="clip0_1760_1367">
<rect width="32" height="32" fill="white"/>
</clipPath>
</defs>
</svg>
